Coordinates
version=1
nRows=8
nColumns=36
inDegrees=yes

Units are S.I. units (second, meters, Newtons, ...)
If the header above contains a line with 'inDegrees', this indicates whether rotational values are in degrees (yes) or radians (no).

endheader
time	pelvis_tilt	pelvis_list	pelvis_rotation	pelvis_tx	pelvis_ty	pelvis_tz	hip_flexion_r	hip_adduction_r	hip_rotation_r	knee_angle_r	knee_angle_r_beta	ankle_angle_r	subtalar_angle_r	mtp_angle_r	hip_flexion_l	hip_adduction_l	hip_rotation_l	knee_angle_l	knee_angle_l_beta	ankle_angle_l	subtalar_angle_l	mtp_angle_l	lumbar_extension	lumbar_bending	lumbar_rotation	arm_flex_r	arm_add_r	arm_rot_r	elbow_flex_r	pro_sup_r	arm_flex_l	arm_add_l	arm_rot_l	elbow_flex_l	pro_sup_l
     44.91666670	     -1.13987981	     -5.88054107	     -1.71816453	      0.88874250	      0.91988275	      0.82926324	     33.94084517	      4.18219632	      6.71493085	     19.17613681	      0.33468673	      3.99880535	     -4.85429260	     -7.49999987	    -11.11699177	     -7.39653251	      1.76147123	     18.79641801	      0.32805938	     24.74673573	     -5.90787447	     -7.49999987	    -23.02069058	      8.14019805	     -3.59852747	     12.91684706	    -13.28730471	      6.77862007	     21.58838326	     84.48319508	     22.39644127	    -12.52087805	     13.33977785	     26.98950769	     79.31851355
     44.93333330	     -1.17625236	     -6.61837325	     -1.55372129	      0.89704155	      0.92178069	      0.83307111	     33.30860441	      5.33025318	      6.31600100	     21.19636378	      0.36994634	      2.69750548	     -5.31410134	     -7.49999987	    -11.97864943	     -8.47156202	      1.16232698	     20.21501203	      0.35281852	     23.45551319	     -6.50421136	     -7.49999987	    -22.53998489	      9.16847441	     -3.55893907	     12.56859219	    -13.49190179	      6.67904104	     20.55666072	     84.44475884	     22.07226973	    -12.15816670	     13.34353047	     25.65202116	     79.63004284
     44.95000000	     -1.15211442	     -7.24340220	     -1.57255441	      0.90417983	      0.92595957	      0.83614716	     32.46644198	      6.38530558	      6.10680454	     23.03610094	      0.40205581	      2.09739249	     -5.41352455	     -7.49999987	    -12.56366140	     -9.39769026	      0.41102051	     22.14485359	      0.38650061	     21.20583569	     -7.62577405	     -7.49999987	    -22.20494346	     10.05534505	     -3.31878101	     12.23911639	    -13.66942732	      6.47573706	     19.57060115	     84.40607717	     21.41032167	    -11.70365677	     12.76418495	     24.59533546	     79.76781163
     44.96666670	     -1.06055276	     -7.75802270	     -1.74095231	      0.90991826	      0.93163418	      0.83921926	     31.33724871	      7.31308393	      6.04728697	     24.54042431	      0.42831120	      2.33496850	     -5.17907387	     -7.49999987	    -12.72621295	    -10.22147152	     -0.46371132	     24.73032559	      0.43162561	     18.13941148	     -8.80949893	     -7.49999987	    -21.96055811	     10.86766966	     -3.01533944	     11.97363677	    -13.84667212	      6.41831567	     18.77267114	     84.12489871	     20.37676399	    -11.17868640	     11.62921716	     23.79595202	     79.61516098
     44.98333330	     -0.76878027	     -8.06506428	     -2.06774397	      0.91366643	      0.93741671	      0.84291889	     29.77859785	      8.08857658	      6.31429468	     25.63413264	      0.44740002	      3.22747671	     -4.86865545	     -7.49999987	    -12.54406086	    -10.82255439	     -1.21565658	     27.95727496	      0.48794650	     14.36351846	    -10.20594866	     -7.49999987	    -22.01282702	     11.37481824	     -2.53958565	     11.73741316	    -13.96104936	      6.45527256	     18.15142769	     83.41646655	     19.25630184	    -10.65737742	     10.09596899	     23.34356387	     78.98996079
     45.00000000	     -0.25175976	     -8.16485644	     -2.46242375	      0.91433888	      0.94384321	      0.84739819	     27.74372095	      8.68973216	      6.84094510	     26.19365069	      0.45716545	      4.30506371	     -4.82588820	     -7.49999987	    -11.93873087	    -11.25256700	     -1.82033240	     31.82200846	      0.55539882	     10.21728654	    -11.52285776	     -7.49999987	    -22.48502107	     11.57134863	     -1.98019118	     11.59654281	    -14.03165246	      6.61114752	     17.99499832	     82.91744462	     18.15694871	    -10.22318791	      8.31072179	     23.27867847	     78.68785581
     45.01666670	      0.35736959	     -8.00461565	     -2.72675013	      0.91301177	      0.94745232	      0.85242195	     25.53084043	      8.96176601	      7.24998517	     26.39729511	      0.46071971	      5.76271461	     -4.54390364	     -7.49999987	    -10.63066349	    -11.50988947	     -2.12977573	     36.49639238	      0.63698221	      6.02344822	    -12.64144295	     -7.49999987	    -23.14396825	     11.44615046	     -1.66275254	     11.85515847	    -13.90376222	      6.52911136	     17.63666215	     84.13244375	     17.12725962	     -9.78600137	      4.93195867	     23.30545555	     81.66103718
     45.03333330	      0.86931598	     -7.69416520	     -2.88879265	      0.91152978	      0.94985392	      0.85728861	     23.43128866	      9.06602788	      7.64575179	     26.36977105	      0.46023933	      7.28803016	     -4.51217341	     -7.49999987	     -8.66234502	    -11.70286036	     -2.30576868	     41.69261614	      0.72767343	      2.50356794	    -13.13372364	     -7.49999987	    -23.71638484	     11.08543885	     -0.94117334	     11.87940292	    -13.87383849	      6.44247415	     17.77415313	     83.97101686	     16.55510036	     -9.59892107	      4.65175002	     23.09964782	     81.50601772
